<?xml version="1.0" standalone="no"?>
<!DOCTYPE svg PUBLIC "-//W3C//DTD SVG 20010904//EN"
 "http://www.w3.org/TR/2001/REC-SVG-20010904/DTD/svg10.dtd">
<svg version="1.0" xmlns="http://www.w3.org/2000/svg"
 width="1280.000000pt" height="720.000000pt" viewBox="0 0 1280.000000 720.000000"
 preserveAspectRatio="xMidYMid meet">

<g transform="translate(0.000000,720.000000) scale(0.100000,-0.100000)"
fill="#000000" stroke="none">
<path d="M0 3600 l0 -3600 6400 0 6400 0 0 3600 0 3600 -6400 0 -6400 0 0
-3600z m4118 183 l3 -123 254 0 254 0 3 123 3 122 33 3 32 3 0 -280 0 -281
-35 0 -35 0 0 120 0 120 -255 0 -255 0 0 -120 0 -120 -35 0 -35 0 0 281 0 280
33 -3 32 -3 3 -122z m1343 112 c35 -19 49 -50 49 -110 0 -76 -13 -84 -320
-190 -151 -52 -276 -95 -277 -95 -2 0 -3 -18 -3 -40 l0 -40 280 0 280 0 0 -35
0 -35 -290 0 -291 0 -24 25 c-21 20 -25 34 -25 85 0 45 5 65 19 79 21 21 25
22 341 134 l235 82 0 40 0 40 -282 3 -283 2 0 28 c0 16 3 32 7 35 3 4 130 7
280 7 228 0 279 -3 304 -15z m298 -52 c42 -38 95 -86 119 -108 73 -67 70 -68
169 21 179 161 169 154 219 154 25 0 44 -4 42 -9 -1 -5 -68 -67 -148 -136 -80
-70 -146 -131 -148 -135 -2 -5 65 -68 149 -142 l152 -133 -48 -3 c-55 -4 -50
-7 -199 126 l-116 104 -82 -74 c-46 -40 -101 -90 -123 -111 -45 -42 -65 -50
-119 -45 l-37 3 147 130 c81 72 149 135 151 140 1 6 -62 66 -141 135 -79 69
-147 131 -150 138 -4 8 8 12 41 12 42 0 51 -5 122 -67z m1109 44 c27 -15 32
-23 32 -52 0 -19 -2 -35 -5 -35 -3 0 -22 8 -43 19 -75 38 -178 35 -226 -7 -39
-35 -60 -102 -59 -192 0 -123 34 -183 117 -210 47 -15 112 -7 166 20 21 11 42
20 45 20 4 0 5 -17 3 -37 -3 -34 -7 -39 -48 -55 -52 -20 -152 -23 -201 -7 -98
33 -150 116 -157 251 -7 146 35 238 132 285 44 21 62 24 131 20 49 -2 92 -10
113 -20z m383 -92 c21 -55 67 -176 102 -270 l65 -170 -25 -3 c-40 -6 -49 3
-74 72 l-24 66 -136 0 -136 0 -28 -70 c-27 -67 -30 -70 -62 -70 -38 0 -38 -1
-17 48 8 20 51 129 94 242 43 113 83 218 89 233 10 26 14 28 63 25 l51 -3 38
-100z m482 85 c60 -28 87 -78 87 -160 0 -127 -61 -180 -216 -188 l-94 -5 0
-89 0 -89 -37 3 -37 3 2 270 c0 149 1 271 2 273 0 1 56 2 125 2 105 0 132 -3
168 -20z m177 -255 l0 -275 -35 0 -35 0 0 275 0 275 35 0 35 0 0 -275z m428
243 l-3 -33 -82 -3 -83 -3 0 -239 0 -240 -35 0 -35 0 0 240 0 239 -82 3 -83 3
-3 33 -3 32 206 0 206 0 -3 -32z m347 -145 c37 -98 85 -222 106 -275 l37 -98
-38 0 c-37 0 -38 0 -63 68 l-25 67 -138 0 -139 0 -24 -67 c-24 -65 -27 -68
-58 -68 -18 0 -33 3 -33 7 0 4 46 128 103 275 l102 268 51 0 51 0 68 -177z
m227 -65 l3 -243 124 -5 124 -5 1 -27 2 -28 -163 0 -163 0 0 275 0 275 35 0
35 0 2 -242z"/>
<path d="M7102 3698 c-27 -73 -48 -136 -46 -140 8 -13 204 -10 204 3 0 16 -90
252 -99 262 -5 5 -31 -52 -59 -125z"/>
<path d="M7510 3720 l0 -120 80 0 c99 0 134 15 150 66 16 46 7 111 -18 136
-24 24 -79 37 -154 38 l-58 0 0 -120z"/>
<path d="M8512 3705 c-29 -74 -52 -139 -52 -145 0 -6 41 -10 105 -10 58 0 105
3 105 7 0 6 -100 276 -104 280 -1 2 -26 -58 -54 -132z"/>
</g>
</svg>
